<mxfile host="app.diagrams.net" modified="2023-06-05T09:40:02.735Z" agent="Mozilla/5.0 (X11; Ubuntu; Linux x86_64; rv:109.0) Gecko/20100101 Firefox/113.0" etag="9tklx1UA_0-5wASJ_6Jk" version="21.3.7" type="github">
  <diagram name="Page-1" id="gOXQ0VzHXa8z2_pSHwEF">
    <mxGraphModel dx="989" dy="510" grid="1" gridSize="10" guides="1" tooltips="1" connect="1" arrows="1" fold="1" page="1" pageScale="1" pageWidth="827" pageHeight="1169" math="0" shadow="0">
      <root>
        <mxCell id="0" />
        <mxCell id="1" parent="0" />
        <mxCell id="u7vq3cdZX9xwPmhoczQw-11" value="" style="rounded=0;whiteSpace=wrap;html=1;fillColor=#f5f5f5;strokeColor=#666666;fontColor=#333333;" vertex="1" parent="1">
          <mxGeometry x="100" y="50" width="850" height="660" as="geometry" />
        </mxCell>
        <mxCell id="u7vq3cdZX9xwPmhoczQw-4" style="edgeStyle=orthogonalEdgeStyle;rounded=0;orthogonalLoop=1;jettySize=auto;html=1;entryX=0.5;entryY=1;entryDx=0;entryDy=0;" edge="1" parent="1" source="u7vq3cdZX9xwPmhoczQw-1" target="u7vq3cdZX9xwPmhoczQw-3">
          <mxGeometry relative="1" as="geometry" />
        </mxCell>
        <mxCell id="u7vq3cdZX9xwPmhoczQw-1" value="STM32" style="rounded=0;whiteSpace=wrap;html=1;fillColor=#ffe6cc;strokeColor=#d79b00;" vertex="1" parent="1">
          <mxGeometry x="340" y="350" width="120" height="60" as="geometry" />
        </mxCell>
        <mxCell id="u7vq3cdZX9xwPmhoczQw-2" value="&lt;div&gt;XBEE&lt;/div&gt;" style="rounded=0;whiteSpace=wrap;html=1;fillColor=#f8cecc;strokeColor=#b85450;" vertex="1" parent="1">
          <mxGeometry x="340" y="480" width="120" height="60" as="geometry" />
        </mxCell>
        <mxCell id="u7vq3cdZX9xwPmhoczQw-3" value="ECRAN" style="rounded=0;whiteSpace=wrap;html=1;fillColor=#dae8fc;strokeColor=#6c8ebf;" vertex="1" parent="1">
          <mxGeometry x="285" y="150" width="230" height="120" as="geometry" />
        </mxCell>
        <mxCell id="u7vq3cdZX9xwPmhoczQw-6" value="SERVEUR PYTHON" style="rounded=0;whiteSpace=wrap;html=1;fillColor=#d5e8d4;strokeColor=#82b366;" vertex="1" parent="1">
          <mxGeometry x="640" y="340" width="140" height="80" as="geometry" />
        </mxCell>
        <mxCell id="u7vq3cdZX9xwPmhoczQw-9" value="&lt;div&gt;&lt;font style=&quot;font-size: 8px; font-weight: normal;&quot;&gt;Nappe ZIF&lt;/font&gt;&lt;/div&gt;" style="text;strokeColor=none;fillColor=none;html=1;fontSize=24;fontStyle=1;verticalAlign=middle;align=center;" vertex="1" parent="1">
          <mxGeometry x="410" y="270" width="50" height="30" as="geometry" />
        </mxCell>
        <mxCell id="u7vq3cdZX9xwPmhoczQw-12" style="edgeStyle=orthogonalEdgeStyle;rounded=0;orthogonalLoop=1;jettySize=auto;html=1;entryX=0.5;entryY=1;entryDx=0;entryDy=0;" edge="1" parent="1">
          <mxGeometry relative="1" as="geometry">
            <mxPoint x="410" y="360" as="sourcePoint" />
            <mxPoint x="410" y="280" as="targetPoint" />
            <Array as="points">
              <mxPoint x="410" y="300" />
              <mxPoint x="410" y="300" />
            </Array>
          </mxGeometry>
        </mxCell>
      </root>
    </mxGraphModel>
  </diagram>
</mxfile>
